#!OML:ASF X:\für Bonn\!DataBase\2005_08_12_Daniel\c3d\Daniel.ASF
:FULLY-SPECIFIED
:DEGREES
2846
root -0.911142 15.7626 16.7797 -727.077 -52.1972 -360.196
lowerback 15.9173 -2.82936 8.08209
upperback 2.64929 -2.39757 0.750574
thorax -6.37607 -1.37103 -3.25368
lowerneck -6.56415 4.42036 -3.31579
upperneck 3.38536 6.25094 -1.48566
head 2.12942 3.01925 0.327625
rclavicle 6.35117e-014 -7.95139e-015
rhumerus -55.1407 -6.97157 -89.6327
rradius 54.423
rwrist 7.33945
rhand -34.2275 34.4213
rfingers 7.12502
rthumb -7.39913 4.57073
lclavicle 6.35117e-014 -7.95139e-015
lhumerus -59.2554 -0.535995 95.9082
lradius 95.5186
lwrist 5.21305
lhand -5.43659 -13.1129
lfingers 7.12502
lthumb 20.3739 15.8383
rfemur -15.1569 -2.42479 39.686
rtibia 52.5165
rfoot -28.6269 -0.0234452
rtoes 15.9957
lfemur -8.16798 10.6045 0.159711
ltibia 98.9795
lfoot -3.89065 -7.80338
ltoes -8.14579
2847
root -1.07485 15.7569 16.9808 -726.716 -53.3158 -360.324
lowerback 15.7422 -2.56514 8.05151
upperback 2.6323 -2.0701 0.77464
thorax -6.25761 -1.2078 -3.28823
lowerneck -6.34023 4.55844 -3.1629
upperneck 3.23271 6.41923 -1.71471
head 2.04965 3.10284 0.226935
rclavicle 1.27222e-014 -3.49861e-014
rhumerus -53.9619 -7.62749 -90.6859
rradius 55.6554
rwrist 7.07456
rhand -34.8066 35.5371
rfingers 7.12502
rthumb -7.95814 5.70692
lclavicle 1.27222e-014 -3.49861e-014
lhumerus -59.526 -0.0611012 95.4956
lradius 94.5014
lwrist 5.15267
lhand -5.41609 -13.048
lfingers 7.12502
lthumb 20.3936 15.9012
rfemur -14.3244 -2.31057 39.5041
rtibia 52.7249
rfoot -29.1072 0.972703
rtoes 15.6254
lfemur -10.6065 10.9692 -0.0205464
ltibia 99.8991
lfoot -4.8468 -7.8499
ltoes -8.74424
2848
root -1.23808 15.764 17.1784 -726.567 -54.4745 -360.296
lowerback 15.6627 -2.27624 7.92527
upperback 2.63389 -1.72045 0.75733
thorax -6.16787 -1.03253 -3.31395
lowerneck -6.18539 4.68153 -3.03824
upperneck 3.16916 6.57447 -1.92342
head 2.01124 3.17803 0.140717
rclavicle -9.99887e-014 4.77083e-015
rhumerus -52.904 -7.985 -91.9107
rradius 57.136
rwrist 6.51082
rhand -35.1496 36.3848
rfingers 7.12502
rthumb -8.28919 6.56742
lclavicle -9.99887e-014 4.77083e-015
lhumerus -59.93 0.167606 95.1733
lradius 94.0338
lwrist 5.41416
lhand -5.03051 -12.7027
lfingers 7.12502
lthumb 20.7641 16.2064
rfemur -13.2773 -2.16147 39.182
rtibia 52.731
rfoot -29.4379 1.94327
rtoes 15.4023
lfemur -12.9179 11.2431 -0.455995
ltibia 100.476
lfoot -5.80696 -7.59921
ltoes -8.4142
2849
root -1.3964 15.7898 17.3743 -726.525 -55.7967 -360.197
lowerback 15.6897 -1.93365 7.79986
upperback 2.63567 -1.29214 0.702998
thorax -6.12878 -0.820938 -3.393
lowerneck -6.03084 4.79285 -2.90555
upperneck 3.11758 6.71267 -2.10207
head 1.97687 3.24567 0.0623047
rclavicle 9.93923e-016 5.56597e-015
rhumerus -51.976 -7.95921 -93.2669
rradius 58.8472
rwrist 5.82092
rhand -35.1569 36.8601
rfingers 7.12502
rthumb -8.29623 7.04304
lclavicle 9.93923e-016 5.56597e-015
lhumerus -60.5251 0.197489 94.9348
lradius 94.1089
lwrist 5.91189
lhand -4.30224 -12.2375
lfingers 7.12502
lthumb 21.4637 16.5935
rfemur -12.041 -1.9875 38.7214
rtibia 52.5198
rfoot -29.546 3.07994
rtoes 15.1665
lfemur -15.0958 11.5237 -1.06769
ltibia 100.701
lfoot -6.72251 -7.12788
ltoes -7.63205
2850
root -1.55201 15.8322 17.5693 -726.594 -57.2373 -360.019
lowerback 15.8017 -1.55288 7.67006
upperback 2.62113 -0.807424 0.618321
thorax -6.14808 -0.584299 -3.51219
lowerneck -5.85822 4.89587 -2.80352
upperneck 3.12989 6.84215 -2.24395
head 1.95839 3.30856 0.000744421
rclavicle -6.20208e-014 -7.15625e-015
rhumerus -51.2028 -7.50488 -94.6922
rradius 60.7406
rwrist 5.14686
rhand -34.8238 36.7474
rfingers 7.12502
rthumb -7.97472 6.91784
lclavicle -6.20208e-014 -7.15625e-015
lhumerus -61.0995 0.00276166 94.7645
lradius 94.3459
lwrist 6.6221
lhand -3.4816 -11.7946
lfingers 7.12502
lthumb 22.2517 16.9444
rfemur -10.6926 -1.68286 38.1913
rtibia 52.1386
rfoot -29.4499 4.13266
rtoes 14.7065
lfemur -17.0839 11.733 -1.87422
ltibia 100.539
lfoot -7.72709 -6.49016
ltoes -7.57139
2851
root -1.71287 15.8896 17.7628 -726.705 -58.6264 -359.799
lowerback 15.8355 -1.17815 7.51524
upperback 2.62825 -0.344841 0.512711
thorax -6.10393 -0.355251 -3.63555
lowerneck -5.68121 4.98544 -2.67822
upperneck 3.11698 6.95152 -2.39206
head 1.93249 3.36225 -0.0677975
rclavicle 1.11319e-014 1.74931e-014
rhumerus -50.5317 -6.61274 -96.1797
rradius 62.7218
rwrist 4.59621
rhand -34.2731 36.206
rfingers 7.12502
rthumb -7.44318 6.35691
lclavicle 1.11319e-014 1.74931e-014
lhumerus -61.6996 -0.355163 94.6546
lradius 94.7258
lwrist 7.42755
lhand -2.71336 -11.4728
lfingers 7.12502
lthumb 22.989 17.1763
rfemur -9.29968 -1.47855 37.5823
rtibia 51.6068
rfoot -29.1596 5.18246
rtoes 14.0837
lfemur -18.9446 11.7166 -2.81578
ltibia 99.9993
lfoot -8.67427 -5.69595
ltoes -7.34194
2852
root -1.87914 15.9569 17.9553 -726.906 -59.9713 -359.519
lowerback 15.8385 -0.812019 7.33073
upperback 2.64526 0.0974829 0.39586
thorax -6.03498 -0.134261 -3.74882
lowerneck -5.53658 5.07187 -2.61743
upperneck 3.18042 7.06249 -2.47095
head 1.93261 3.416 -0.101919
rclavicle -5.40197e-014 -1.59028e-015
rhumerus -50.0255 -5.29554 -97.6359
rradius 64.7342
rwrist 4.2252
rhand -33.5376 35.3285
rfingers 7.12502
rthumb -6.73325 5.45557
lclavicle -5.40197e-014 -1.59028e-015
lhumerus -62.4891 -0.910639 94.5839
lradius 95.3515
lwrist 8.32789
lhand -2.03864 -11.3451
lfingers 7.12502
lthumb 23.6363 17.222
rfemur -7.85524 -1.31984 36.8892
rtibia 50.9856
rfoot -28.6002 6.26689
rtoes 13.6438
lfemur -20.6162 11.5232 -3.81131
ltibia 99.1118
lfoot -9.31186 -4.7473
ltoes -6.14149
2853
root -2.04592 16.0324 18.1471 -727.049 -61.3376 -359.329
lowerback 15.8675 -0.433395 7.23768
upperback 2.65353 0.573768 0.270299
thorax -5.98477 0.100653 -3.92917
lowerneck -5.41708 5.12212 -2.57464
upperneck 3.26947 7.12646 -2.50417
head 1.94328 3.44662 -0.119249
rclavicle -1.44119e-014 1.11319e-014
rhumerus -49.6415 -3.72868 -98.983
rradius 66.7123
rwrist 4.13553
rhand -32.6173 34.3879
rfingers 7.12502
rthumb -5.84471 4.48854
lclavicle -1.44119e-014 1.11319e-014
lhumerus -63.3858 -1.63337 94.5443
lradius 96.0929
lwrist 9.19937
lhand -1.55607 -11.4391
lfingers 7.12502
lthumb 24.0991 17.0675
rfemur -6.42889 -1.13863 36.209
rtibia 50.3105
rfoot -27.6868 7.34017
rtoes 13.1307
lfemur -22.1209 11.2149 -4.72631
ltibia 97.9221
lfoot -10.0504 -3.83372
ltoes -5.12671
2854
root -2.21529 16.1126 18.3388 -727.145 -62.7344 -359.185
lowerback 15.879 -0.0625293 7.18258
upperback 2.65398 1.04521 0.144575
thorax -5.93197 0.332628 -4.12894
lowerneck -5.41318 5.18246 -2.59653
upperneck 3.47615 7.21411 -2.47674
head 2.00833 3.4862 -0.100759
rclavicle -1.09332e-015 1.11319e-014
rhumerus -49.3926 -1.96031 -100.208
rradius 68.6369
rwrist 4.40097
rhand -31.6328 33.6024
rfingers 7.12502
rthumb -4.89419 3.67894
lclavicle -1.09332e-015 1.11319e-014
lhumerus -64.3355 -2.39281 94.4743
lradius 96.9045
lwrist 10.0248
lhand -1.11236 -11.7032
lfingers 7.12502
lthumb 24.5245 16.7463
rfemur -5.04401 -0.848823 35.5451
rtibia 49.6113
rfoot -26.4669 8.35854
rtoes 12.9595
lfemur -23.4556 10.8744 -5.54075
ltibia 96.4526
lfoot -10.8837 -2.97241
ltoes -4.45227
2855
root -2.38744 16.1969 18.5303 -727.249 -64.1094 -359.068
lowerback 15.9361 0.294376 7.16745
upperback 2.63752 1.50923 0.0118791
thorax -5.92002 0.558348 -4.35769
lowerneck -5.3867 5.22717 -2.68017
upperneck 3.67784 7.28178 -2.40121
head 2.06338 3.51653 -0.0585832
rclavicle 1.00386e-014 5.1684e-015
rhumerus -49.2827 -0.0947626 -101.259
rradius 70.5375
rwrist 4.92227
rhand -30.5733 33.1469
rfingers 7.12502
rthumb -3.87111 3.20235
lclavicle 1.00386e-014 5.1684e-015
lhumerus -65.3146 -3.1963 94.3833
lradius 97.7456
lwrist 10.7791
lhand -0.750625 -12.1176
lfingers 7.12502
lthumb 24.8712 16.2845
rfemur -3.69743 -0.491056 34.9044
rtibia 48.893
rfoot -24.9738 9.22956
rtoes 12.9298
lfemur -24.5746 10.4768 -6.25971
ltibia 94.6755
lfoot -11.7945 -2.16922
ltoes -4.29071
2856
root -2.56664 16.2852 18.7218 -727.393 -65.4822 -358.897
lowerback 15.9359 0.648766 7.1261
upperback 2.63339 1.95997 -0.124664
thorax -5.86353 0.780383 -4.57051
lowerneck -5.43648 5.27339 -2.79072
upperneck 3.94268 7.35684 -2.2951
head 2.15076 3.54884 0.00154803
rclavicle -4.7112e-014 2.06736e-014
rhumerus -49.2107 1.869 -102.164
rradius 72.3508
rwrist 5.56693
rhand -29.4852 33.0452
rfingers 7.12502
rthumb -2.82029 3.08408
lclavicle -4.7112e-014 2.06736e-014
lhumerus -66.2256 -3.91551 94.248
lradius 98.5756
lwrist 11.4361
lhand -0.386364 -12.4634
lfingers 7.12502
lthumb 25.2203 15.89
rfemur -2.41433 0.00464549 34.2747
rtibia 48.1475
rfoot -23.2579 9.9649
rtoes 13.0133
lfemur -25.4569 10.0505 -6.92105
ltibia 92.5625
lfoot -12.6857 -1.40029
ltoes -4.57625
2857
root -2.75483 16.3804 18.9121 -727.519 -66.8008 -358.747
lowerback 15.9133 0.992905 7.10477
upperback 2.61742 2.39946 -0.268064
thorax -5.80577 0.996722 -4.798
lowerneck -5.50654 5.31031 -2.94259
upperneck 4.24696 7.42139 -2.12987
head 2.25103 3.57592 0.0883032
rclavicle -4.07509e-015 1.59028e-015
rhumerus -49.2154 3.77639 -102.893
rradius 74.1623
rwrist 6.31019
rhand -28.4152 33.1982
rfingers 7.12502
rthumb -1.78695 3.22596
lclavicle -4.07509e-015 1.59028e-015
lhumerus -67.0067 -4.65198 94.0689
lradius 99.361
lwrist 11.9799
lhand 0.0422208 -12.6339
lfingers 7.12502
lthumb 25.6308 15.661
rfemur -1.1848 0.520462 33.6828
rtibia 47.3558
rfoot -21.3306 10.4822
rtoes 13.1768
lfemur -26.1675 9.50333 -7.51194
ltibia 90.1817
lfoot -13.3853 -0.729679
ltoes -4.77288
2858
root -2.9504 16.4819 19.1018 -727.695 -68.0794 -358.547
lowerback 15.8627 1.31947 7.04603
upperback 2.58241 2.80922 -0.408049
thorax -5.75691 1.19896 -4.99275
lowerneck -5.49252 5.35318 -3.09471
upperneck 4.52018 7.48968 -1.98034
head 2.32656 3.60562 0.167293
rclavicle -1.72446e-014 7.15625e-015
rhumerus -49.3619 5.57591 -103.489
rradius 75.8288
rwrist 7.05961
rhand -27.4393 33.6935
rfingers 7.12502
rthumb -0.844384 3.71538
lclavicle -1.72446e-014 7.15625e-015
lhumerus -67.761 -5.37478 93.8433
lradius 100.09
lwrist 12.5558
lhand 0.472652 -12.5564
lfingers 7.12502
lthumb 26.043 15.6785
rfemur 0.0104944 0.955755 33.0554
rtibia 46.5189
rfoot -19.1955 10.897
rtoes 13.262
lfemur -26.6949 8.83601 -8.05329
ltibia 87.5788
lfoot -13.9341 -0.0895334
ltoes -4.6368
2859
root -3.15217 16.5869 19.291 -727.876 -69.2875 -358.336
lowerback 15.7271 1.6256 6.97205
upperback 2.56263 3.18241 -0.553791
thorax -5.64911 1.38698 -5.17158
lowerneck -5.51059 5.39939 -3.24244
upperneck 4.81149 7.56194 -1.80051
head 2.41299 3.63761 0.257001
rclavicle 5.68524e-014 1.98785e-015
rhumerus -49.687 7.33983 -103.966
rradius 77.4486
rwrist 7.66412
rhand -26.5607 34.3043
rfingers 7.12502
rthumb 0.00419958 4.32458
lclavicle 5.68524e-014 1.98785e-015
lhumerus -68.4881 -6.0958 93.5468
lradius 100.75
lwrist 13.0424
lhand 0.852141 -12.3234
lfingers 7.12502
lthumb 26.4063 15.8575
rfemur 1.15728 1.38259 32.439
rtibia 45.6538
rfoot -16.9395 11.1137
rtoes 13.4267
lfemur -27.0752 8.04895 -8.51295
ltibia 84.7732
lfoot -14.3049 0.588585
ltoes -4.65338
